<svg xmlns="http://www.w3.org/2000/svg" viewBox="0 0 520 380" fill="none">
  <!-- Background card -->
  <rect x="10" y="10" width="500" height="360" rx="16" fill="#0f172a" stroke="#1e293b" stroke-width="1.5"/>

  <!-- Top bar -->
  <rect x="10" y="10" width="500" height="44" rx="16" fill="#1e293b"/>
  <rect x="10" y="38" width="500" height="16" fill="#1e293b"/>
  <circle cx="36" cy="32" r="6" fill="#ef4444"/>
  <circle cx="56" cy="32" r="6" fill="#f59e0b"/>
  <circle cx="76" cy="32" r="6" fill="#22c55e"/>
  <rect x="100" y="24" width="140" height="16" rx="4" fill="#0f172a"/>
  <text x="110" y="36" font-family="monospace" font-size="10" fill="#94a3b8">UTEM Dashboard</text>

  <!-- Status badges -->
  <rect x="340" y="22" width="52" height="20" rx="10" fill="#16a34a33"/>
  <text x="366" y="36" font-family="sans-serif" font-size="9" fill="#22c55e" text-anchor="middle">PASSED</text>
  <rect x="400" y="22" width="48" height="20" rx="10" fill="#dc262633"/>
  <text x="424" y="36" font-family="sans-serif" font-size="9" fill="#ef4444" text-anchor="middle">FAILED</text>
  <rect x="455" y="22" width="46" height="20" rx="10" fill="#ca8a0433"/>
  <text x="478" y="36" font-family="sans-serif" font-size="9" fill="#f59e0b" text-anchor="middle">RUNNING</text>

  <!-- Left panel: run list -->
  <rect x="26" y="68" width="200" height="24" rx="6" fill="#1e293b"/>
  <circle cx="40" cy="80" r="5" fill="#22c55e"/>
  <rect x="52" y="75" width="90" height="8" rx="3" fill="#334155"/>
  <rect x="150" y="75" width="40" height="8" rx="3" fill="#1d4ed833"/>
  <text x="170" y="83" font-family="sans-serif" font-size="7" fill="#60a5fa" text-anchor="middle">247/250</text>

  <rect x="26" y="98" width="200" height="24" rx="6" fill="#1e293b"/>
  <circle cx="40" cy="110" r="5" fill="#ef4444"/>
  <rect x="52" y="105" width="80" height="8" rx="3" fill="#334155"/>
  <rect x="150" y="105" width="40" height="8" rx="3" fill="#dc262633"/>
  <text x="170" y="113" font-family="sans-serif" font-size="7" fill="#f87171" text-anchor="middle">183/190</text>

  <rect x="26" y="128" width="200" height="24" rx="6" fill="#1e293b"/>
  <circle cx="40" cy="140" r="5" fill="#f59e0b"/>
  <rect x="52" y="135" width="100" height="8" rx="3" fill="#334155"/>
  <rect x="150" y="135" width="40" height="8" rx="3" fill="#ca8a0433"/>
  <text x="170" y="143" font-family="sans-serif" font-size="7" fill="#fbbf24" text-anchor="middle">45/120</text>

  <rect x="26" y="158" width="200" height="24" rx="6" fill="#1e293b"/>
  <circle cx="40" cy="170" r="5" fill="#22c55e"/>
  <rect x="52" y="165" width="70" height="8" rx="3" fill="#334155"/>
  <rect x="150" y="165" width="40" height="8" rx="3" fill="#1d4ed833"/>
  <text x="170" y="173" font-family="sans-serif" font-size="7" fill="#60a5fa" text-anchor="middle">302/302</text>

  <rect x="26" y="188" width="200" height="24" rx="6" fill="#1e293b"/>
  <circle cx="40" cy="200" r="5" fill="#22c55e"/>
  <rect x="52" y="195" width="85" height="8" rx="3" fill="#334155"/>
  <rect x="150" y="195" width="40" height="8" rx="3" fill="#1d4ed833"/>
  <text x="170" y="203" font-family="sans-serif" font-size="7" fill="#60a5fa" text-anchor="middle">88/88</text>

  <!-- Right panel: trend chart -->
  <rect x="244" y="68" width="256" height="160" rx="8" fill="#1e293b"/>
  <text x="260" y="86" font-family="sans-serif" font-size="9" fill="#94a3b8">Pass Rate Trend</text>

  <!-- Chart grid lines -->
  <line x1="260" y1="100" x2="484" y2="100" stroke="#334155" stroke-width="0.5"/>
  <line x1="260" y1="120" x2="484" y2="120" stroke="#334155" stroke-width="0.5"/>
  <line x1="260" y1="140" x2="484" y2="140" stroke="#334155" stroke-width="0.5"/>
  <line x1="260" y1="160" x2="484" y2="160" stroke="#334155" stroke-width="0.5"/>
  <line x1="260" y1="180" x2="484" y2="180" stroke="#334155" stroke-width="0.5"/>
  <line x1="260" y1="200" x2="484" y2="200" stroke="#334155" stroke-width="0.5"/>

  <!-- Y axis labels -->
  <text x="257" y="103" font-family="monospace" font-size="7" fill="#475569" text-anchor="end">100%</text>
  <text x="257" y="143" font-family="monospace" font-size="7" fill="#475569" text-anchor="end">75%</text>
  <text x="257" y="183" font-family="monospace" font-size="7" fill="#475569" text-anchor="end">50%</text>

  <!-- Area fill -->
  <path d="M264,185 L302,160 L340,145 L378,120 L416,108 L454,103 L484,100 L484,200 L264,200 Z" fill="#3b82f620"/>
  <!-- Trend line -->
  <polyline points="264,185 302,160 340,145 378,120 416,108 454,103 484,100"
    stroke="#3b82f6" stroke-width="2" stroke-linecap="round" stroke-linejoin="round" fill="none"/>
  <!-- Data points -->
  <circle cx="264" cy="185" r="3" fill="#3b82f6"/>
  <circle cx="302" cy="160" r="3" fill="#3b82f6"/>
  <circle cx="340" cy="145" r="3" fill="#3b82f6"/>
  <circle cx="378" cy="120" r="3" fill="#3b82f6"/>
  <circle cx="416" cy="108" r="3" fill="#3b82f6"/>
  <circle cx="454" cy="103" r="3" fill="#3b82f6"/>
  <circle cx="484" cy="100" r="3.5" fill="white" stroke="#3b82f6" stroke-width="2"/>

  <!-- Bottom: stats row -->
  <rect x="26" y="248" width="112" height="64" rx="8" fill="#1e293b"/>
  <text x="82" y="268" font-family="sans-serif" font-size="8" fill="#94a3b8" text-anchor="middle">Total Runs</text>
  <text x="82" y="294" font-family="sans-serif" font-size="22" font-weight="bold" fill="white" text-anchor="middle">1,284</text>

  <rect x="152" y="248" width="112" height="64" rx="8" fill="#1e293b"/>
  <text x="208" y="268" font-family="sans-serif" font-size="8" fill="#94a3b8" text-anchor="middle">Pass Rate</text>
  <text x="208" y="294" font-family="sans-serif" font-size="22" font-weight="bold" fill="#22c55e" text-anchor="middle">94.2%</text>

  <rect x="278" y="248" width="112" height="64" rx="8" fill="#1e293b"/>
  <text x="334" y="268" font-family="sans-serif" font-size="8" fill="#94a3b8" text-anchor="middle">Flaky Tests</text>
  <text x="334" y="294" font-family="sans-serif" font-size="22" font-weight="bold" fill="#f59e0b" text-anchor="middle">7</text>

  <rect x="404" y="248" width="96" height="64" rx="8" fill="#1e293b"/>
  <text x="452" y="268" font-family="sans-serif" font-size="8" fill="#94a3b8" text-anchor="middle">Avg Duration</text>
  <text x="452" y="294" font-family="sans-serif" font-size="22" font-weight="bold" fill="#60a5fa" text-anchor="middle">3.2m</text>

  <!-- Live indicator -->
  <circle cx="36" cy="340" r="4" fill="#22c55e"/>
  <text x="46" y="344" font-family="sans-serif" font-size="9" fill="#22c55e">Live · WebSocket connected</text>
</svg>
